
<svg version="1.1" xmlns="http://www.w3.org/2000/svg" viewBox="0 0 277.56 81.85">
	<g>
		<rect x="162.33" y="0" fill="#F48D35" width="1.74" height="81.45"/>
	</g>
	<g>
		<path fill="#FFFFFF" d="M192.67,11.06c-1.76,0-3.14,0.56-4.15,1.69S187,15.41,187,17.37c0,2,0.48,3.55,1.43,4.66
			c0.95,1.11,2.31,1.66,4.08,1.66c1.18,0,2.26-0.15,3.24-0.45v0.86c-0.93,0.33-2.08,0.49-3.47,0.49c-1.97,0-3.52-0.64-4.65-1.91
			c-1.13-1.27-1.7-3.05-1.7-5.33c0-1.42,0.27-2.68,0.81-3.77c0.54-1.09,1.32-1.92,2.33-2.52c1.01-0.59,2.19-0.89,3.53-0.89
			c1.37,0,2.59,0.26,3.67,0.77l-0.39,0.88C194.87,11.31,193.79,11.06,192.67,11.06z"/>
		<path fill="#FFFFFF" d="M210.66,17.37c0,2.22-0.55,3.98-1.67,5.28c-1.11,1.29-2.65,1.94-4.6,1.94c-1.95,0-3.48-0.65-4.59-1.94
			c-1.11-1.29-1.67-3.06-1.67-5.3c0-2.23,0.56-3.99,1.68-5.27c1.12-1.28,2.65-1.92,4.6-1.92c1.96,0,3.49,0.64,4.59,1.93
			C210.11,13.38,210.66,15.14,210.66,17.37z M199.2,17.37c0,2.01,0.45,3.56,1.34,4.65c0.9,1.1,2.18,1.64,3.85,1.64
			c1.69,0,2.98-0.54,3.87-1.63c0.89-1.09,1.34-2.64,1.34-4.67c0-2.02-0.45-3.57-1.34-4.64c-0.89-1.08-2.17-1.61-3.85-1.61
			c-1.67,0-2.95,0.54-3.86,1.63C199.65,13.82,199.2,15.37,199.2,17.37z"/>
		<path fill="#FFFFFF" d="M220.04,24.39l-5.22-12.94h-0.08c0.05,0.79,0.08,1.6,0.08,2.43v10.51h-0.94V10.38h1.51l4.96,12.33h0.06
			l4.97-12.33h1.48v14.01h-0.99V13.77c0-0.74,0.04-1.51,0.11-2.3h-0.08l-5.24,12.92H220.04z"/>
		<path fill="#FFFFFF" d="M239.25,14.4c0,1.35-0.46,2.39-1.38,3.12c-0.92,0.72-2.22,1.08-3.91,1.08h-2.17v5.79h-0.98V10.38h3.43
			C237.59,10.38,239.25,11.72,239.25,14.4z M231.8,17.76h1.93c1.58,0,2.72-0.26,3.42-0.78c0.7-0.52,1.05-1.37,1.05-2.54
			c0-1.08-0.33-1.88-1-2.4c-0.66-0.52-1.69-0.78-3.09-0.78h-2.32V17.76z"/>
		<path fill="#FFFFFF" d="M249.05,19.45h-5.69l-1.96,4.95h-1.08l5.64-14.07h0.62l5.52,14.07h-1.1L249.05,19.45z M243.71,18.56h5.01
			l-1.91-5.05c-0.16-0.4-0.35-0.95-0.57-1.65c-0.17,0.61-0.36,1.17-0.57,1.67L243.71,18.56z"/>
		<path fill="#FFFFFF" d="M255.06,18.29v6.11h-0.98V10.38h3.34c1.74,0,3.02,0.32,3.85,0.96s1.25,1.61,1.25,2.9
			c0,0.94-0.25,1.73-0.74,2.38c-0.5,0.65-1.25,1.11-2.26,1.39l3.8,6.38h-1.17l-3.61-6.11H255.06z M255.06,17.44h2.67
			c1.18,0,2.1-0.26,2.75-0.79s0.98-1.3,0.98-2.33c0-1.07-0.32-1.84-0.96-2.33c-0.64-0.49-1.68-0.73-3.13-0.73h-2.32V17.44z"/>
		<path fill="#FFFFFF" d="M273.4,24.39h-7.66V10.38h7.66v0.9h-6.68v5.3h6.31v0.9h-6.31v6.01h6.68V24.39z"/>
		<path fill="#FFFFFF" d="M192.52,35.7c-1.32,0-2.35,0.47-3.1,1.4c-0.76,0.93-1.13,2.22-1.13,3.86c0,1.72,0.36,3.02,1.09,3.9
			c0.73,0.88,1.78,1.32,3.15,1.32c0.59,0,1.17-0.06,1.73-0.18c0.56-0.12,1.13-0.27,1.73-0.45v1.96c-1.1,0.42-2.35,0.62-3.74,0.62
			c-2.05,0-3.63-0.62-4.73-1.86c-1.1-1.24-1.65-3.02-1.65-5.33c0-1.46,0.27-2.73,0.8-3.82c0.53-1.09,1.31-1.93,2.31-2.51
			s2.2-0.87,3.56-0.87c1.43,0,2.75,0.3,3.97,0.9l-0.82,1.91c-0.47-0.22-0.97-0.42-1.5-0.59C193.65,35.78,193.1,35.7,192.52,35.7z"/>
		<path fill="#FFFFFF" d="M211.44,40.92c0,2.28-0.57,4.05-1.71,5.32c-1.14,1.27-2.76,1.9-4.85,1.9c-2.12,0-3.74-0.63-4.87-1.88
			c-1.13-1.26-1.7-3.04-1.7-5.35c0-2.31,0.57-4.09,1.71-5.33c1.14-1.24,2.77-1.86,4.88-1.86c2.08,0,3.69,0.63,4.83,1.89
			C210.87,36.86,211.44,38.63,211.44,40.92z M200.74,40.92c0,1.73,0.35,3.03,1.05,3.92c0.7,0.89,1.73,1.34,3.1,1.34
			c1.36,0,2.39-0.44,3.08-1.32c0.69-0.88,1.04-2.19,1.04-3.94c0-1.72-0.34-3.02-1.03-3.91c-0.69-0.89-1.71-1.33-3.07-1.33
			c-1.37,0-2.41,0.44-3.11,1.33C201.09,37.9,200.74,39.2,200.74,40.92z"/>
		<path fill="#FFFFFF" d="M226.12,47.95h-2.81l-6.89-11.17h-0.08l0.05,0.62c0.09,1.19,0.13,2.28,0.13,3.26v7.28h-2.08V33.93h2.78
			l6.87,11.11h0.06c-0.01-0.15-0.04-0.68-0.08-1.61c-0.04-0.92-0.06-1.64-0.06-2.16v-7.34h2.1V47.95z"/>
		<path fill="#FFFFFF" d="M241.49,47.95h-2.81l-6.89-11.17h-0.08l0.05,0.62c0.09,1.19,0.13,2.28,0.13,3.26v7.28h-2.08V33.93h2.78
			l6.87,11.11h0.06c-0.01-0.15-0.04-0.68-0.08-1.61c-0.04-0.92-0.06-1.64-0.06-2.16v-7.34h2.1V47.95z"/>
		<path fill="#FFFFFF" d="M253.12,47.95h-7.93V33.93h7.93v1.94h-5.64v3.81h5.28v1.92h-5.28V46h5.64V47.95z"/>
		<path fill="#FFFFFF" d="M262.11,35.7c-1.32,0-2.35,0.47-3.11,1.4c-0.75,0.93-1.13,2.22-1.13,3.86c0,1.72,0.36,3.02,1.09,3.9
			c0.73,0.88,1.77,1.32,3.15,1.32c0.59,0,1.17-0.06,1.72-0.18c0.56-0.12,1.13-0.27,1.73-0.45v1.96c-1.1,0.42-2.35,0.62-3.74,0.62
			c-2.05,0-3.63-0.62-4.73-1.86c-1.1-1.24-1.65-3.02-1.65-5.33c0-1.46,0.27-2.73,0.8-3.82c0.53-1.09,1.31-1.93,2.31-2.51
			c1.01-0.58,2.19-0.87,3.56-0.87c1.43,0,2.75,0.3,3.97,0.9l-0.83,1.91c-0.47-0.22-0.97-0.42-1.5-0.59
			C263.25,35.78,262.69,35.7,262.11,35.7z"/>
		<path fill="#FFFFFF" d="M273.43,47.95h-2.29V35.9h-4.12v-1.96h10.53v1.96h-4.12V47.95z"/>
		<path fill="#FFFFFF" d="M186.22,57.49h4.89c1.9,0,3.32,0.28,4.24,0.85c0.92,0.57,1.39,1.45,1.39,2.64c0,0.79-0.2,1.46-0.6,2.01
			c-0.4,0.56-0.93,0.91-1.59,1.07v0.1c0.87,0.23,1.5,0.61,1.89,1.15c0.39,0.54,0.58,1.23,0.58,2.09c0,1.27-0.48,2.27-1.43,3
			c-0.96,0.73-2.26,1.1-3.91,1.1h-5.45V57.49z M190,62.87h1.14c0.54,0,0.96-0.11,1.26-0.34c0.3-0.22,0.45-0.56,0.45-1
			c0-0.79-0.59-1.18-1.78-1.18H190V62.87z M190,65.64v2.94h1.33c1.18,0,1.77-0.5,1.77-1.5c0-0.47-0.16-0.82-0.47-1.07
			c-0.32-0.25-0.77-0.37-1.38-0.37H190z"/>
		<path fill="#FFFFFF" d="M211.36,57.49v8.43c0,1.83-0.52,3.25-1.56,4.26c-1.04,1.01-2.54,1.51-4.49,1.51
			c-1.91,0-3.38-0.49-4.4-1.47c-1.03-0.98-1.54-2.38-1.54-4.22v-8.52h3.8v8.22c0,0.99,0.19,1.71,0.56,2.16
			c0.37,0.45,0.92,0.67,1.64,0.67c0.77,0,1.33-0.22,1.68-0.67c0.35-0.44,0.52-1.17,0.52-2.18v-8.2H211.36z"/>
		<path fill="#FFFFFF" d="M219.31,62.69l2.42-5.19h4.1l-4.61,8.54v5.47h-3.81v-5.36l-4.61-8.66h4.12L219.31,62.69z"/>
	</g>
	<g>
		<path fill="#FFFFFF" d="M0,73.42h2.28c1.03,0,1.78,0.17,2.26,0.52c0.48,0.35,0.72,0.88,0.72,1.58c0,0.48-0.15,0.88-0.44,1.2
			c-0.29,0.32-0.72,0.53-1.29,0.62v0.03c0.66,0.1,1.15,0.31,1.46,0.63c0.31,0.32,0.47,0.77,0.47,1.34c0,0.77-0.25,1.36-0.76,1.77
			c-0.51,0.41-1.23,0.62-2.16,0.62H0V73.42z M0.58,77.13h1.83c0.78,0,1.35-0.13,1.7-0.39c0.35-0.26,0.53-0.67,0.53-1.22
			c0-0.55-0.2-0.96-0.6-1.21c-0.4-0.25-1-0.37-1.79-0.37H0.58V77.13z M0.58,77.64v3.59h1.96c1.54,0,2.31-0.63,2.31-1.88
			c0-1.14-0.81-1.71-2.43-1.71H0.58z"/>
		<path fill="#FFFFFF" d="M9.22,77.97l2.43-4.55h0.63l-2.77,5.1v3.21h-0.6v-3.17l-2.78-5.15h0.67L9.22,77.97z"/>
		<path fill="#FFFFFF" d="M21.09,73.42h1.78l-2.83,8.32h-1.92l-2.82-8.32h1.78l1.56,4.95c0.09,0.29,0.18,0.63,0.27,1.02
			c0.09,0.39,0.15,0.66,0.17,0.81c0.04-0.35,0.18-0.96,0.43-1.83L21.09,73.42z"/>
		<path fill="#FFFFFF" d="M23.92,81.74v-8.32h1.76v8.32H23.92z"/>
		<path fill="#FFFFFF" d="M29.54,78.55v3.19h-1.76v-8.32h2.42c1.13,0,1.97,0.21,2.51,0.62c0.54,0.41,0.81,1.04,0.81,1.87
			c0,0.49-0.13,0.92-0.4,1.31c-0.27,0.38-0.65,0.68-1.14,0.9c1.25,1.87,2.07,3.08,2.45,3.62h-1.96l-1.99-3.19H29.54z M29.54,77.11
			h0.57c0.56,0,0.97-0.09,1.23-0.28c0.27-0.19,0.4-0.48,0.4-0.88c0-0.4-0.14-0.67-0.41-0.84c-0.27-0.17-0.69-0.25-1.26-0.25h-0.54
			V77.11z"/>
		<path fill="#FFFFFF" d="M38.67,81.74h-1.76v-6.85h-2.26v-1.47h6.28v1.47h-2.26V81.74z"/>
		<path fill="#FFFFFF" d="M48.98,73.42v5.38c0,0.61-0.14,1.15-0.41,1.61c-0.27,0.46-0.67,0.82-1.19,1.06
			c-0.52,0.25-1.13,0.37-1.84,0.37c-1.07,0-1.9-0.27-2.49-0.82s-0.89-1.3-0.89-2.25v-5.36h1.76v5.09c0,0.64,0.13,1.11,0.39,1.41
			c0.26,0.3,0.68,0.45,1.28,0.45c0.58,0,0.99-0.15,1.25-0.45c0.26-0.3,0.39-0.78,0.39-1.42v-5.08H48.98z"/>
		<path fill="#FFFFFF" d="M56.11,81.74l-0.6-1.98h-3.03l-0.6,1.98h-1.9l2.93-8.35h2.16l2.95,8.35H56.11z M55.08,78.28
			c-0.56-1.79-0.87-2.81-0.94-3.04c-0.07-0.24-0.12-0.42-0.15-0.56c-0.13,0.49-0.48,1.69-1.08,3.6H55.08z"/>
		<path fill="#FFFFFF" d="M59.05,81.74v-8.32h1.76v6.86h3.37v1.46H59.05z"/>
		<path fill="#FFFFFF" d="M70.43,81.74h-4.79v-8.32h4.79v1.44H67.4v1.83h2.82v1.44H67.4v2.14h3.03V81.74z"/>
		<path fill="#FFFFFF" d="M78.88,81.74h-2.01l-1.93-3.15L73,81.74h-1.89l2.76-4.29l-2.58-4.03h1.95l1.79,2.99l1.76-2.99h1.9
			l-2.61,4.12L78.88,81.74z"/>
		<path fill="#FFFFFF" d="M85.67,76.02c0,0.89-0.28,1.58-0.84,2.05c-0.56,0.47-1.35,0.71-2.39,0.71h-0.76v2.96h-1.76v-8.32h2.66
			c1.01,0,1.78,0.22,2.3,0.65C85.41,74.51,85.67,75.16,85.67,76.02z M81.69,77.34h0.58c0.54,0,0.95-0.11,1.22-0.32
			c0.27-0.21,0.4-0.53,0.4-0.94c0-0.41-0.11-0.72-0.34-0.92c-0.23-0.2-0.58-0.3-1.06-0.3h-0.8V77.34z"/>
		<path fill="#FFFFFF" d="M94.79,77.57c0,1.38-0.34,2.43-1.02,3.17c-0.68,0.74-1.66,1.11-2.93,1.11c-1.27,0-2.25-0.37-2.94-1.11
			c-0.68-0.74-1.02-1.8-1.02-3.19c0-1.38,0.34-2.44,1.03-3.17c0.68-0.73,1.67-1.1,2.94-1.1s2.26,0.37,2.93,1.1
			C94.45,75.13,94.79,76.19,94.79,77.57z M88.72,77.57c0,0.93,0.18,1.63,0.53,2.1c0.35,0.47,0.88,0.71,1.58,0.71
			c1.41,0,2.11-0.94,2.11-2.8c0-1.87-0.7-2.81-2.1-2.81c-0.7,0-1.23,0.24-1.59,0.71C88.9,75.94,88.72,76.64,88.72,77.57z"/>
		<path fill="#FFFFFF" d="M102.7,77.07h3.3v4.31c-0.54,0.18-1.04,0.3-1.51,0.37c-0.47,0.07-0.95,0.11-1.45,0.11
			c-1.26,0-2.21-0.37-2.88-1.11c-0.66-0.74-0.99-1.8-0.99-3.18c0-1.34,0.38-2.39,1.15-3.14c0.77-0.75,1.83-1.13,3.19-1.13
			c0.85,0,1.68,0.17,2.47,0.51l-0.59,1.41c-0.61-0.3-1.24-0.46-1.89-0.46c-0.76,0-1.37,0.25-1.83,0.77
			c-0.46,0.51-0.69,1.2-0.69,2.07c0,0.9,0.18,1.59,0.55,2.07c0.37,0.48,0.91,0.71,1.61,0.71c0.37,0,0.74-0.04,1.12-0.11v-1.74h-1.58
			V77.07z"/>
		<path fill="#FFFFFF" d="M109.74,78.55v3.19h-1.76v-8.32h2.42c1.13,0,1.97,0.21,2.51,0.62c0.54,0.41,0.81,1.04,0.81,1.87
			c0,0.49-0.13,0.92-0.4,1.31c-0.27,0.38-0.65,0.68-1.14,0.9c1.25,1.87,2.07,3.08,2.45,3.62h-1.96l-1.99-3.19H109.74z M109.74,77.11
			h0.57c0.56,0,0.97-0.09,1.23-0.28c0.27-0.19,0.4-0.48,0.4-0.88c0-0.4-0.14-0.67-0.41-0.84c-0.27-0.17-0.69-0.25-1.26-0.25h-0.54
			V77.11z"/>
		<path fill="#FFFFFF" d="M123.22,77.57c0,1.38-0.34,2.43-1.02,3.17c-0.68,0.74-1.66,1.11-2.93,1.11c-1.27,0-2.25-0.37-2.94-1.11
			c-0.68-0.74-1.02-1.8-1.02-3.19c0-1.38,0.34-2.44,1.03-3.17c0.68-0.73,1.67-1.1,2.94-1.1c1.28,0,2.26,0.37,2.93,1.1
			C122.88,75.13,123.22,76.19,123.22,77.57z M117.15,77.57c0,0.93,0.18,1.63,0.53,2.1c0.35,0.47,0.88,0.71,1.58,0.71
			c1.41,0,2.11-0.94,2.11-2.8c0-1.87-0.7-2.81-2.1-2.81c-0.7,0-1.23,0.24-1.59,0.71C117.33,75.94,117.15,76.64,117.15,77.57z"/>
		<path fill="#FFFFFF" d="M131.71,73.42v5.38c0,0.61-0.14,1.15-0.41,1.61c-0.27,0.46-0.67,0.82-1.19,1.06
			c-0.52,0.25-1.13,0.37-1.84,0.37c-1.07,0-1.9-0.27-2.49-0.82c-0.59-0.55-0.89-1.3-0.89-2.25v-5.36h1.76v5.09
			c0,0.64,0.13,1.11,0.39,1.41c0.26,0.3,0.68,0.45,1.28,0.45c0.58,0,0.99-0.15,1.25-0.45c0.26-0.3,0.39-0.78,0.39-1.42v-5.08H131.71
			z"/>
		<path fill="#FFFFFF" d="M139.49,76.02c0,0.89-0.28,1.58-0.84,2.05c-0.56,0.47-1.35,0.71-2.39,0.71h-0.76v2.96h-1.76v-8.32h2.66
			c1.01,0,1.78,0.22,2.3,0.65C139.23,74.51,139.49,75.16,139.49,76.02z M135.51,77.34h0.58c0.54,0,0.95-0.11,1.22-0.32
			c0.27-0.21,0.4-0.53,0.4-0.94c0-0.41-0.11-0.72-0.34-0.92c-0.23-0.2-0.58-0.3-1.06-0.3h-0.8V77.34z"/>
	</g>
	<g>
		<path fill="#F48D35" d="M38.61,0.01l-4.66,0.64c-0.36,0.05-0.63,0.36-0.63,0.73v4.16c0,0.41,0.33,0.74,0.73,0.74h4.66
			c0.41,0,0.73-0.33,0.73-0.74V0.74c0-0.21-0.09-0.42-0.25-0.56S38.82-0.02,38.61,0.01"/>
	</g>
	<g>
		<g>
			<path fill="#F48D35" d="M24.69,18.31c0,2.04-0.2,3.9-0.58,5.54c-0.37,1.56-1.03,2.9-1.96,3.99c-0.93,1.07-2.22,1.92-3.83,2.51
				c-1.66,0.61-3.81,0.91-6.41,0.91H6.12V5.75h5.79c2.57,0,4.72,0.29,6.38,0.88c1.62,0.57,2.92,1.39,3.85,2.44
				c0.94,1.05,1.6,2.35,1.97,3.86C24.49,14.5,24.69,16.32,24.69,18.31 M12.05,0.07H4.61c-0.2,0-0.39,0.08-0.53,0.22l-3.87,4
				C0.07,4.43,0,4.61,0,4.81v31.46C0,36.67,0.33,37,0.74,37h11.31c12.6,0,18.98-6.28,18.98-18.68C31.03,6.21,24.64,0.07,12.05,0.07"
				/>
		</g>
		<g>
			<path fill="#F48D35" d="M38.51,9.69h-4.66c-0.41,0-0.73,0.33-0.73,0.74v25.83c0,0.41,0.33,0.74,0.73,0.74h4.66
				c0.41,0,0.73-0.33,0.73-0.74V10.43C39.24,10.02,38.92,9.69,38.51,9.69"/>
		</g>
		<g>
			<path fill="#F48D35" d="M121.49,32.12c-0.17-0.14-0.4-0.2-0.62-0.15c-0.33,0.07-0.66,0.11-0.99,0.13
				c-0.63,0.04-1.4,0.09-1.98-0.07c-0.15-0.04-0.28-0.13-0.39-0.28c-0.1-0.13-0.24-0.41-0.35-0.95c-0.1-0.48-0.16-1.15-0.16-2V14.73
				h3.41c0.41,0,0.74-0.33,0.74-0.74v-3.51c0-0.41-0.33-0.74-0.74-0.74h-3.4l0.03-5.54c0-0.2-0.08-0.38-0.21-0.52
				c-0.14-0.14-0.33-0.22-0.52-0.22h-4.6c-0.41,0-0.73,0.33-0.74,0.73l-0.04,5.55h-2.42c-0.41,0-0.74,0.33-0.74,0.74v3.51
				c0,0.41,0.33,0.74,0.74,0.74h2.41V28.5c0,1.24,0.04,2.37,0.14,3.36c0.1,1.07,0.38,2.01,0.84,2.78c0.47,0.81,1.21,1.43,2.18,1.85
				c0.92,0.4,2.13,0.6,3.68,0.6c0.61,0,1.2-0.03,1.76-0.08c0.56-0.05,1.11-0.13,1.64-0.23c0.35-0.07,0.6-0.37,0.6-0.72V32.7
				C121.76,32.47,121.66,32.26,121.49,32.12"/>
		</g>
		<g>
			<path fill="#F48D35" d="M91.15,16.58c0.57-0.72,1.24-1.28,2.02-1.65c1.29-0.62,2.97-0.75,4.5-0.29c0.58,0.17,1.1,0.43,1.53,0.77
				c0.43,0.33,0.77,0.73,1.04,1.23c0.26,0.48,0.42,1.05,0.46,1.7c0.03,0.39,0.35,0.69,0.73,0.69h4.51c0.21,0,0.41-0.09,0.55-0.25
				c0.14-0.16,0.21-0.37,0.18-0.58c-0.16-1.33-0.54-2.55-1.12-3.62c-0.58-1.08-1.37-2.01-2.32-2.75c-0.93-0.73-2.05-1.31-3.32-1.71
				c-2.76-0.87-6.39-0.78-9.16,0.29c-1.54,0.6-2.88,1.49-3.99,2.66c-1.11,1.17-1.97,2.63-2.57,4.35c-0.59,1.7-0.89,3.66-0.89,5.85
				c0,2.22,0.3,4.19,0.89,5.87c0.6,1.71,1.46,3.17,2.57,4.34c1.11,1.18,2.45,2.08,3.99,2.68c1.52,0.59,3.21,0.89,5.03,0.89
				c1.38,0,2.72-0.19,3.95-0.55c1.24-0.37,2.36-0.93,3.33-1.65c0.98-0.73,1.79-1.65,2.42-2.75c0.62-1.09,1.02-2.36,1.18-3.78
				c0.02-0.21-0.04-0.42-0.18-0.58c-0.14-0.16-0.34-0.25-0.55-0.25h-4.51c-0.39,0-0.71,0.3-0.73,0.69c-0.04,0.7-0.2,1.3-0.47,1.79
				c-0.27,0.5-0.61,0.9-1.03,1.21c-0.43,0.32-0.94,0.56-1.51,0.72c-0.61,0.16-1.24,0.24-1.88,0.24c-2.01,0-3.56-0.72-4.72-2.18
				c-1.19-1.49-1.8-3.74-1.8-6.69c0-1.48,0.17-2.8,0.5-3.92C90.12,18.25,90.58,17.32,91.15,16.58"/>
		</g>
		<g>
			<path fill="#F48D35" d="M56.65,15.02v-4.54c0-0.34-0.24-0.64-0.57-0.72c-0.42-0.09-0.81-0.16-1.17-0.19
				c-2.62-0.24-5.03,0.59-7,2.71v-1.51c0-0.41-0.33-0.74-0.74-0.74h-4.6c-0.41,0-0.74,0.33-0.74,0.74v25.48
				c0,0.41,0.33,0.74,0.74,0.74h4.6c0.41,0,0.74-0.33,0.74-0.74v-17.7c1.49-2.09,3.2-3.1,5.21-3.1c1.06,0,1.93,0.09,2.61,0.28
				c0.22,0.06,0.46,0.01,0.64-0.13C56.54,15.47,56.65,15.25,56.65,15.02"/>
		</g>
		<g>
			<path fill="#F48D35" d="M62.64,20.16c0.17-0.82,0.4-1.55,0.7-2.19c0.38-0.83,0.85-1.51,1.4-2.05c0.54-0.52,1.16-0.91,1.82-1.17
				c0.68-0.26,1.42-0.39,2.2-0.39c1.7,0,3.06,0.52,4.17,1.59c0.97,0.94,1.66,2.35,2.05,4.2H62.64z M77.85,13.17
				c-1.09-1.18-2.43-2.09-3.97-2.71c-3.01-1.2-7.08-1.25-10.13,0c-1.51,0.62-2.85,1.53-3.95,2.72c-1.1,1.18-1.97,2.64-2.57,4.33
				c-0.6,1.68-0.9,3.6-0.9,5.7c0,2.16,0.31,4.1,0.93,5.78c0.62,1.7,1.51,3.15,2.65,4.32c1.14,1.17,2.53,2.08,4.12,2.7
				c1.58,0.61,3.34,0.92,5.24,0.92c1.43,0,2.81-0.19,4.11-0.55c1.31-0.37,2.49-0.92,3.5-1.63c1.03-0.73,1.89-1.65,2.56-2.73
				c0.68-1.09,1.12-2.36,1.3-3.77c0.03-0.21-0.04-0.42-0.18-0.58c-0.14-0.16-0.34-0.25-0.55-0.25h-4.49c-0.39,0-0.71,0.3-0.73,0.69
				c-0.04,0.64-0.22,1.2-0.51,1.67c-0.31,0.49-0.72,0.91-1.2,1.24c-0.51,0.34-1.09,0.6-1.74,0.77c-1.56,0.4-3.22,0.33-4.64-0.18
				c-0.78-0.28-1.48-0.73-2.08-1.35c-0.61-0.63-1.12-1.44-1.5-2.41c-0.32-0.8-0.55-1.74-0.67-2.8H80.5c0.41,0,0.74-0.33,0.74-0.74
				v-1.08c0-2.13-0.29-4.06-0.86-5.73C79.79,15.81,78.95,14.35,77.85,13.17"/>
		</g>
	</g>
	<g>
		<rect y="41.8" fill="#FFFFFF" width="2.06" height="22.39"/>
	</g>
	<g>
		<polyline fill="#FFFFFF" points="22.69,64.19 23.27,64.19 23.27,41.8 21.22,41.8 21.22,60.51 6.28,41.77 4.75,41.77 4.75,64.19 
			6.81,64.19 6.81,45.75 21.51,64.19 22.28,64.19 		"/>
	</g>
	<g>
		<path fill="#FFFFFF" d="M33.79,62.14h-5.4V43.83h5.4c5.24,0,8.42,3.41,8.51,9.11C42.17,58.7,38.99,62.14,33.79,62.14 M33.79,41.77
			h-7.46v22.42h7.46c6.42,0,10.56-4.41,10.56-11.24C44.35,46.16,40.2,41.77,33.79,41.77"/>
	</g>
	<g>
		<path fill="#FFFFFF" d="M62.98,53.28c0,4.24-1.26,9.3-7.24,9.3c-6,0-7.26-5.06-7.26-9.3V41.77h-2.06v11.51
			c0,7.22,3.4,11.36,9.32,11.36c5.91,0,9.29-4.14,9.29-11.36V41.77h-2.06V53.28z"/>
	</g>
	<g>
		<path fill="#FFFFFF" d="M75.58,51.95c-4,0-6.03-1.41-6.03-4.18c0.09-3.7,4.18-4.1,5.94-4.1c1.76,0,4.12,0.39,5.35,2.24l0.33,0.51
			l1.96-0.82l-0.52-0.75c-1.61-2.3-3.68-3.23-7.12-3.23c-3.69,0-8,1.61-8,6.13c0,4.03,2.87,6.25,8.08,6.25
			c2.99,0,6.56,0.7,6.56,4.05c0,3.33-4.03,4.22-6.41,4.22c-2.56,0-5.11-1.05-6.82-2.82l-0.48-0.5l-1.56,1.36l0.56,0.56
			c1.58,1.58,4.3,3.46,8.31,3.46c4.21,0,8.47-1.94,8.47-6.28C84.19,54.12,81.13,51.95,75.58,51.95"/>
	</g>
	<g>
		<polygon fill="#FFFFFF" points="84.14,43.83 92.17,43.83 92.17,64.19 94.22,64.19 94.22,43.83 102.25,43.83 102.25,41.77 
			84.14,41.77 		"/>
	</g>
	<g>
		<path fill="#FFFFFF" d="M105.29,43.83h7.21c2.44,0,4.58,2.35,4.58,5.02c0,2.48-1.64,5.05-4.38,5.05h-7.41V43.83z M119.71,64.19
			l-5.44-8.43c2.88-0.79,4.86-3.58,4.86-6.91c0-3.42-2.67-7.08-6.63-7.08h-9.26v22.42h2.06v-8.23h6.66l5.31,8.23H119.71z"/>
	</g>
	<g>
		<polygon fill="#FFFFFF" points="138.93,41.79 132.79,49.92 125.63,40.32 125.51,40.16 123.99,41.29 131.61,51.51 121.02,66.06 
			120.9,66.22 122.43,67.35 140.45,42.92 		"/>
	</g>
</svg>
